<svg width="24" height="24" viewBox="0 0 24 24" fill="none" xmlns="http://www.w3.org/2000/svg">
<path d="M8 9V4.8C8 3.2536 9.2536 2 10.8 2H13.2C14.7464 2 16 3.2536 16 4.8V5.5" stroke="#B0BABF" stroke-width="1.5" stroke-linecap="round"/>
<path fill-rule="evenodd" clip-rule="evenodd" d="M12.4054 7.95828C12.136 7.92732 11.864 7.92732 11.5946 7.95828L6.39462 8.55598C4.60265 8.76196 3.25 10.279 3.25 12.0828V18.2621C3.25 19.99 4.49407 21.4669 6.19683 21.7605L11.3968 22.6571C11.796 22.7259 12.204 22.7259 12.6032 22.6571L17.8032 21.7605C19.5059 21.4669 20.75 19.99 20.75 18.2621V12.0828C20.75 10.279 19.3974 8.76196 17.6054 8.55598L12.4054 7.95828ZM10.1389 14.2222C10.1389 13.1943 10.9722 12.3611 12 12.3611C13.0279 12.3611 13.8611 13.1943 13.8611 14.2222C13.8611 14.9832 13.4044 15.6376 12.75 15.926V17.5556C12.75 17.9698 12.4142 18.3056 12 18.3056C11.5858 18.3056 11.25 17.9698 11.25 17.5556V15.926C10.5957 15.6375 10.1389 14.9832 10.1389 14.2222Z" fill="#B0BABF"/>
</svg>
